# xmcd
#
# Track frame offsets:
#	150
#	1298
#	16897
#	31166
#	44196
#	56910
#	62605
#	82623
#	89447
#	89904
#	101856
#	119391
#	131058
#	142790
#	163457
#	164089
#	176990
#	199692
#	210720
#
# Disc length: 3079 seconds
#
# Revision: 0
# Processed by: cddbd v1.5.2PL0 Copyright (c) Steve Scherf et al.
# Submitted via: EZCDAudioConverter 2.1.7.1
#
DISCID=160c0513
DTITLE=Advisory Circle - As The Crow Flies
DYEAR=2011
DGENRE=
TTITLE0=Logotone 1 - Decisions
TTITLE1=Now Ends The Beginning
TTITLE2=Here! In The Wychwoods
TTITLE3=The Patchwork Explains
TTITLE4=Everyday Hazards
TTITLE5=Ceridwen
TTITLE6=As The Crow Flies
TTITLE7=Innocence Elsewhere
TTITLE8=Logotone 2 - The New Traffic Signs
TTITLE9=Modern Through Movement
TTITLE10=Learning Owl Reappears
TTITLE11=Further Starry Wisdom
TTITLE12=We Cleanse This Space
TTITLE13=Beyond The Wychelm
TTITLE14=Logotone 3 - Eyes Inside You
TTITLE15=Route Along 18 Corners
TTITLE16=Wheel Of The Year
TTITLE17=Unforgotten Path
TTITLE18=Lonely Signalman
EXTD=
EXTT0=
EXTT1=
EXTT2=
EXTT3=
EXTT4=
EXTT5=
EXTT6=
EXTT7=
EXTT8=
EXTT9=
EXTT10=
EXTT11=
EXTT12=
EXTT13=
EXTT14=
EXTT15=
EXTT16=
EXTT17=
EXTT18=
PLAYORDER=
